<?xml version="1.0" encoding="UTF-8" standalone="no"?>
<!DOCTYPE svg PUBLIC "-//W3C//DTD SVG 1.1//EN"
 "http://www.w3.org/Graphics/SVG/1.1/DTD/svg11.dtd">
<!-- Generated by graphviz version 2.40.1 (20161225.0304)
 -->
<!-- Title: network_end_state Pages: 1 -->
<svg width="525pt" height="340pt"
 viewBox="0.00 0.00 525.00 340.00" xmlns="http://www.w3.org/2000/svg" xmlns:xlink="http://www.w3.org/1999/xlink">
<g id="graph0" class="graph" transform="scale(1 1) rotate(0) translate(4 336)">
<title>network_end_state</title>
<polygon fill="#ffffff" stroke="transparent" points="-4,4 -4,-336 521,-336 521,4 -4,4"/>
<text text-anchor="start" x="196.5" y="-316.2" font-family="Lato Regular" font-weight="bold" font-size="16.00" fill="#000000">Desired end state</text>
<g id="clust1" class="cluster">
<title>cluster_home</title>
<polygon fill="none" stroke="#000000" points="8,-8 8,-291.5 242,-291.5 242,-8 8,-8"/>
<text text-anchor="middle" x="125" y="-17.2" font-family="Lato Regular" font-size="16.00" fill="#000000">Home</text>
</g>
<g id="clust2" class="cluster">
<title>cluster_jails</title>
<polygon fill="none" stroke="#000000" points="16,-42 16,-204 234,-204 234,-42 16,-42"/>
<text text-anchor="middle" x="125" y="-51.2" font-family="Lato Regular" font-size="16.00" fill="#000000">Jails</text>
</g>
<g id="clust4" class="cluster">
<title>cluster_do</title>
<polygon fill="none" stroke="#000000" points="402,-124 402,-298 509,-298 509,-124 402,-124"/>
<text text-anchor="middle" x="455.5" y="-133.2" font-family="Lato Regular" font-size="16.00" fill="#000000">DigitalOcean</text>
</g>
<!-- nextcloud -->
<g id="node1" class="node">
<title>nextcloud</title>
<polygon fill="none" stroke="#000000" points="123,-196 31,-196 31,-156 123,-156 123,-196"/>
<text text-anchor="middle" x="77" y="-179.4" font-family="Lato Regular" font-size="12.00" fill="#000000">NextCloud</text>
<text text-anchor="middle" x="77" y="-166.4" font-family="Lato Regular" font-size="12.00" fill="#000000">172.16.10.1</text>
</g>
<!-- nessus -->
<g id="node2" class="node">
<title>nessus</title>
<polygon fill="none" stroke="#000000" points="116,-116 24,-116 24,-76 116,-76 116,-116"/>
<text text-anchor="middle" x="70" y="-99.4" font-family="Lato Regular" font-size="12.00" fill="#000000">Nessus</text>
<text text-anchor="middle" x="70" y="-86.4" font-family="Lato Regular" font-size="12.00" fill="#000000">172.16.10.2</text>
</g>
<!-- nextcloud&#45;&gt;nessus -->
<!-- whatever -->
<g id="node3" class="node">
<title>whatever</title>
<polygon fill="none" stroke="#000000" points="226,-116 134,-116 134,-76 226,-76 226,-116"/>
<text text-anchor="middle" x="180" y="-99.4" font-family="Lato Regular" font-size="12.00" fill="#000000">¯\_(ツ)_/¯</text>
<text text-anchor="middle" x="180" y="-86.4" font-family="Lato Regular" font-size="12.00" fill="#000000">172.16.10.3</text>
</g>
<!-- nextcloud&#45;&gt;whatever -->
<!-- hfw -->
<g id="node4" class="node">
<title>hfw</title>
<polygon fill="none" stroke="#000000" points="226.5,-283.5 141.5,-283.5 141.5,-243.5 226.5,-243.5 226.5,-283.5"/>
<text text-anchor="middle" x="184" y="-266.9" font-family="Lato Regular" font-size="12.00" fill="#000000">Firewall</text>
<text text-anchor="middle" x="184" y="-253.9" font-family="Lato Regular" font-size="12.00" fill="#000000">172.16.1.1</text>
</g>
<!-- thecloud -->
<g id="node6" class="node">
<title>thecloud</title>
<image xlink:href="cloud.svg" width="107.471px" height="63px" preserveAspectRatio="xMinYMin meet" x="265.265" y="-295"/>
<text text-anchor="middle" x="319" y="-260.4" font-family="Lato Regular" font-size="12.00" fill="#000000">The Cloud™</text>
</g>
<!-- hfw&#45;&gt;thecloud -->
<g id="edge6" class="edge">
<title>hfw&#45;&gt;thecloud</title>
<path fill="none" stroke="#000000" d="M226.7148,-263.5C238.3707,-263.5 250.0265,-263.5 261.6823,-263.5"/>
</g>
<!-- freenas -->
<g id="node5" class="node">
<title>freenas</title>
<polygon fill="none" stroke="#000000" points="123,-283.5 31,-283.5 31,-243.5 123,-243.5 123,-283.5"/>
<text text-anchor="middle" x="77" y="-266.9" font-family="Lato Regular" font-size="12.00" fill="#000000">FreeNAS</text>
<text text-anchor="middle" x="77" y="-253.9" font-family="Lato Regular" font-size="12.00" fill="#000000">172.16.1.42</text>
</g>
<!-- freenas&#45;&gt;nextcloud -->
<g id="edge2" class="edge">
<title>freenas&#45;&gt;nextcloud</title>
<path fill="none" stroke="#000000" d="M77,-243.2058C77,-229.07 77,-210.2958 77,-196.1841"/>
</g>
<!-- freenas&#45;&gt;hfw -->
<g id="edge1" class="edge">
<title>freenas&#45;&gt;hfw</title>
<path fill="none" stroke="#000000" d="M123.3945,-263.5C129.3919,-263.5 135.3894,-263.5 141.3868,-263.5"/>
</g>
<!-- router -->
<g id="node7" class="node">
<title>router</title>
<polygon fill="none" stroke="#000000" points="498.5,-290 411.5,-290 411.5,-237 498.5,-237 498.5,-290"/>
<text text-anchor="middle" x="455" y="-273.4" font-family="Lato Regular" font-size="12.00" fill="#000000">Router VM</text>
<text text-anchor="middle" x="455" y="-260.4" font-family="Lato Regular" font-size="12.00" fill="#000000">(OpenBSD)</text>
<text text-anchor="middle" x="455" y="-247.4" font-family="Lato Regular" font-size="12.00" fill="#000000">1.2.3.4</text>
</g>
<!-- thecloud&#45;&gt;router -->
<g id="edge7" class="edge">
<title>thecloud&#45;&gt;router</title>
<path fill="none" stroke="#000000" d="M376.1094,-263.5C387.8197,-263.5 399.53,-263.5 411.2404,-263.5"/>
</g>
<!-- jailhost -->
<g id="node8" class="node">
<title>jailhost</title>
<polygon fill="none" stroke="#000000" points="488.5,-194 421.5,-194 421.5,-158 488.5,-158 488.5,-194"/>
<text text-anchor="middle" x="455" y="-172.9" font-family="Lato Regular" font-size="12.00" fill="#000000">jailhost</text>
</g>
<!-- router&#45;&gt;jailhost -->
<g id="edge5" class="edge">
<title>router&#45;&gt;jailhost</title>
<path fill="none" stroke="#000000" d="M455,-236.7717C455,-223.0009 455,-206.5647 455,-194.2596"/>
</g>
</g>
</svg>
